<svg width="240" height="240" viewBox="0 0 240 240" fill="none" xmlns="http://www.w3.org/2000/svg">
  <defs>
    <linearGradient id="grad" x1="0" y1="0" x2="1" y2="1">
      <stop offset="0%" stop-color="#ff6b6b"/>
      <stop offset="100%" stop-color="#845ef7"/>
    </linearGradient>
  </defs>
  <rect x="0" y="0" width="240" height="240" rx="32" fill="url(#grad)"/>
  <g opacity="0.9" fill="#ffffff">
    <circle cx="96" cy="120" r="18"/>
    <path d="M144 72c-4.418 0-8 3.582-8 8v60.07c-3.413-1.89-7.29-3.07-11.48-3.07-13.255 0-24 10.745-24 24s10.745 24 24 24 24-10.745 24-24V104h12c4.418 0 8-3.582 8-8s-3.582-8-8-8h-12V80c0-4.418-3.582-8-8-8z"/>
  </g>
</svg>
